<svg width="53" height="53" viewBox="0 0 53 53" fill="none" xmlns="http://www.w3.org/2000/svg">
<g filter="url(#filter0_d_30_2879)">
<circle cx="26.5" cy="22.5" r="22.5" fill="#037E8C"/>
<g clip-path="url(#clip0_30_2879)">
<path d="M37.4259 20.959C37.4252 20.9585 37.4247 20.9578 37.4241 20.9572L28.0419 11.5754C27.642 11.1753 27.1103 10.9551 26.5448 10.9551C25.9792 10.9551 25.4475 11.1753 25.0474 11.5754L15.6701 20.9525C15.667 20.9557 15.6637 20.959 15.6607 20.9621C14.8394 21.7881 14.8408 23.1282 15.6647 23.9521C16.0411 24.3287 16.5381 24.5466 17.0696 24.5696C17.0913 24.5717 17.1131 24.5728 17.135 24.5728H17.5088V31.477C17.5088 32.8435 18.6206 33.9551 19.987 33.9551H23.6577C24.0298 33.9551 24.3315 33.6533 24.3315 33.2813V27.8682C24.3315 27.2447 24.8388 26.7376 25.4623 26.7376H27.6273C28.2508 26.7376 28.7579 27.2447 28.7579 27.8682V33.2813C28.7579 33.6533 29.0595 33.9551 29.4317 33.9551H33.1023C34.4689 33.9551 35.5806 32.8435 35.5806 31.477V24.5728H35.9273C36.4927 24.5728 37.0244 24.3525 37.4247 23.9523C38.2494 23.1272 38.2497 21.7846 37.4259 20.959ZM36.4716 22.9994C36.3262 23.1449 36.1328 23.2251 35.9273 23.2251H34.9067C34.5346 23.2251 34.2329 23.5267 34.2329 23.8989V31.477C34.2329 32.1003 33.7258 32.6075 33.1023 32.6075H30.1055V27.8682C30.1055 26.5018 28.9939 25.3899 27.6273 25.3899H25.4623C24.0956 25.3899 22.9838 26.5018 22.9838 27.8682V32.6075H19.987C19.3637 32.6075 18.8564 32.1003 18.8564 31.477V23.8989C18.8564 23.5267 18.5548 23.2251 18.1826 23.2251H17.1796C17.1691 23.2244 17.1587 23.2239 17.148 23.2237C16.9473 23.2202 16.759 23.1405 16.6179 22.9993C16.3178 22.6992 16.3178 22.2108 16.6179 21.9106C16.6181 21.9106 16.6181 21.9104 16.6182 21.9102L16.6188 21.9097L26.0006 12.5282C26.1459 12.3828 26.3391 12.3027 26.5448 12.3027C26.7503 12.3027 26.9435 12.3828 27.0889 12.5282L36.4687 21.9078C36.4701 21.9092 36.4716 21.9106 36.473 21.912C36.7715 22.2126 36.771 22.6999 36.4716 22.9994Z" fill="white"/>
</g>
</g>
<defs>
<filter id="filter0_d_30_2879" x="0" y="0" width="53" height="53" filterUnits="userSpaceOnUse" color-interpolation-filters="sRGB">
<feFlood flood-opacity="0" result="BackgroundImageFix"/>
<feColorMatrix in="SourceAlpha" type="matrix" values="0 0 0 0 0 0 0 0 0 0 0 0 0 0 0 0 0 0 127 0" result="hardAlpha"/>
<feOffset dy="4"/>
<feGaussianBlur stdDeviation="2"/>
<feComposite in2="hardAlpha" operator="out"/>
<feColorMatrix type="matrix" values="0 0 0 0 0 0 0 0 0 0 0 0 0 0 0 0 0 0 0.25 0"/>
<feBlend mode="normal" in2="BackgroundImageFix" result="effect1_dropShadow_30_2879"/>
<feBlend mode="normal" in="SourceGraphic" in2="effect1_dropShadow_30_2879" result="shape"/>
</filter>
<clipPath id="clip0_30_2879">
<rect width="23" height="23" fill="white" transform="translate(15 11)"/>
</clipPath>
</defs>
</svg>
